<svg preserveAspectRatio="none" width="100%" height="100%" overflow="visible" style="display: block;" viewBox="0 0 20 20" fill="none" xmlns="http://www.w3.org/2000/svg">
<g id="grommet-icons:genai" clip-path="url(#clip0_0_21)">
<path id="Vector" d="M7.855 4.2525C8.04 3.50583 9.10167 3.50583 9.28667 4.2525C9.67312 5.8159 10.4792 7.24407 11.618 8.38284C12.7568 9.5216 14.1849 10.3277 15.7483 10.7142C16.495 10.8992 16.495 11.9608 15.7483 12.1458L15.4508 12.2233C13.952 12.6497 12.5924 13.4647 11.51 14.5857C10.4275 15.7067 9.66047 17.0938 9.28667 18.6067L9.24167 18.7383C8.99 19.31 8.15083 19.31 7.9 18.7383L7.855 18.6075C7.48112 17.0946 6.714 15.7073 5.63136 14.5863C4.54871 13.4654 3.18901 12.6504 1.69 12.2242L1.39333 12.1458C0.646667 11.9608 0.646667 10.8992 1.39333 10.7142C2.95674 10.3277 4.3849 9.5216 5.52367 8.38284C6.66244 7.24407 7.46855 5.8159 7.855 4.2525ZM8.57 7.02417C7.58108 8.9043 6.04513 10.4402 4.165 11.4292C6.04513 12.4181 7.58108 13.954 8.57 15.8342C9.55892 13.954 11.0949 12.4181 12.975 11.4292C11.0949 10.4402 9.55892 8.9043 8.57 7.02417ZM15.0833 1.10333C15.1625 0.743333 15.6758 0.743333 15.755 1.10333C15.9252 1.87177 16.3113 2.57564 16.8678 3.13218C17.4244 3.68872 18.1282 4.07479 18.8967 4.245C19.2575 4.325 19.2575 4.8375 18.8967 4.9175L18.7392 4.95833C18.005 5.15151 17.3382 5.54314 16.812 6.09027C16.2857 6.6374 15.9203 7.31889 15.7558 8.06L15.735 8.12333C15.6208 8.39833 15.2167 8.39833 15.1025 8.12333L15.0833 8.06C14.9241 7.34109 14.5758 6.67777 14.0743 6.13862C13.5728 5.59948 12.9364 5.20409 12.2308 4.99333L11.94 4.9175C11.58 4.8375 11.58 4.325 11.94 4.245C12.7087 4.07507 13.413 3.68913 13.9698 3.13257C14.5267 2.57601 14.913 1.87199 15.0833 1.10333ZM15.4183 4.02167C15.2445 4.22052 15.0574 4.40734 14.8583 4.58083C15.0583 4.75528 15.245 4.94194 15.4183 5.14083C15.5922 4.94139 15.7789 4.75472 15.9783 4.58083C15.7792 4.40734 15.5921 4.22052 15.4183 4.02167Z" fill="var(--fill-0, black)"/>
</g>
<defs>
<clipPath id="clip0_0_21">
<rect width="20" height="20" fill="white"/>
</clipPath>
</defs>
</svg>
