<svg preserveAspectRatio="none" width="100%" height="100%" overflow="visible" style="display: block;" viewBox="0 0 20 20" fill="none" xmlns="http://www.w3.org/2000/svg">
<g id="Frame">
<path id="Vector" d="M14.4111 3.08919L16.9111 5.58919C16.9879 5.66878 17.0799 5.73226 17.1816 5.77594C17.2832 5.81961 17.3926 5.8426 17.5032 5.84356C17.6139 5.84452 17.7236 5.82344 17.826 5.78154C17.9284 5.73964 18.0215 5.67776 18.0997 5.59952C18.178 5.52127 18.2398 5.42823 18.2817 5.32582C18.3236 5.2234 18.3447 5.11367 18.3438 5.00302C18.3428 4.89237 18.3198 4.78302 18.2761 4.68135C18.2325 4.57968 18.169 4.48773 18.0894 4.41085L15.5894 1.91085C15.5125 1.83126 15.4206 1.76778 15.3189 1.7241C15.2172 1.68043 15.1079 1.65744 14.9972 1.65648C14.8866 1.65552 14.7768 1.6766 14.6744 1.7185C14.572 1.7604 14.479 1.82228 14.4007 1.90052C14.3225 1.97877 14.2606 2.07181 14.2187 2.17422C14.1768 2.27664 14.1557 2.38637 14.1567 2.49702C14.1576 2.60767 14.1806 2.71702 14.2243 2.81869C14.268 2.92036 14.3315 3.01231 14.4111 3.08919ZM5.58939 1.91085C5.74561 2.06713 5.83338 2.27905 5.83338 2.50002C5.83338 2.72099 5.74561 2.93291 5.58939 3.08919L3.08939 5.58919C2.93222 5.74098 2.72172 5.82498 2.50322 5.82308C2.28472 5.82118 2.07571 5.73354 1.92121 5.57903C1.7667 5.42453 1.67906 5.21552 1.67716 4.99702C1.67526 4.77852 1.75926 4.56802 1.91106 4.41085L4.41106 1.91085C4.56733 1.75463 4.77925 1.66686 5.00022 1.66686C5.22119 1.66686 5.43312 1.75463 5.58939 1.91085ZM10.0002 7.50002C10.1097 7.50002 10.218 7.52157 10.3191 7.56345C10.4202 7.60533 10.5121 7.66672 10.5895 7.7441C10.6669 7.82148 10.7282 7.91335 10.7701 8.01445C10.812 8.11556 10.8336 8.22392 10.8336 8.33335V10H12.5002C12.6097 10 12.718 10.0215 12.8192 10.0634C12.9203 10.1053 13.0122 10.1667 13.0896 10.2441C13.167 10.3214 13.2283 10.4133 13.2702 10.5144C13.3121 10.6155 13.3337 10.7239 13.3337 10.8334C13.3337 10.9428 13.3121 11.0512 13.2702 11.1523C13.2283 11.2534 13.167 11.3453 13.0896 11.4227C13.0122 11.5 12.9203 11.5614 12.8192 11.6033C12.718 11.6452 12.6097 11.6667 12.5002 11.6667H9.16689V8.33335C9.16689 8.11234 9.25469 7.90038 9.41097 7.7441C9.56725 7.58782 9.77921 7.50002 10.0002 7.50002ZM4.16689 10.8334C4.16687 9.49774 4.62518 8.20258 5.46525 7.16424C6.30532 6.12591 7.47626 5.4073 8.78244 5.12848C10.0886 4.84965 11.4509 5.0275 12.6418 5.63231C13.8326 6.23712 14.7798 7.23226 15.3251 8.45146C15.8705 9.67066 15.9809 11.0401 15.638 12.3309C15.2951 13.6218 14.5196 14.7558 13.4411 15.5437C12.3626 16.3315 11.0464 16.7254 9.71246 16.6595C8.37848 16.5936 7.10751 16.072 6.11189 15.1817C5.94687 15.0367 5.73127 14.9627 5.51199 14.9758C5.29271 14.989 5.08748 15.0882 4.94095 15.2518C4.79442 15.4155 4.71844 15.6304 4.72954 15.8498C4.74064 16.0692 4.83792 16.2753 5.00022 16.4234C6.36228 17.6407 8.12179 18.319 9.94851 18.3311C11.7752 18.3431 13.5435 17.6881 14.9216 16.4889C16.2996 15.2897 17.1925 13.6288 17.4329 11.8179C17.6732 10.007 17.2443 8.17067 16.2268 6.65355C15.2092 5.13644 13.673 4.04286 11.9063 3.57806C10.1397 3.11327 8.26414 3.30922 6.63173 4.12914C4.99933 4.94906 3.72228 6.33658 3.0403 8.03126C2.35832 9.72593 2.31829 11.6113 2.92772 13.3334C2.96246 13.4387 3.01788 13.5361 3.09076 13.6198C3.16363 13.7035 3.25248 13.7717 3.35209 13.8206C3.4517 13.8695 3.56007 13.898 3.67084 13.9044C3.78161 13.9109 3.89255 13.8951 3.99716 13.8581C4.10176 13.8211 4.19792 13.7636 4.27999 13.6889C4.36206 13.6142 4.42839 13.5239 4.4751 13.4232C4.5218 13.3226 4.54793 13.2136 4.55196 13.1028C4.55599 12.9919 4.53783 12.8813 4.49856 12.7775C4.27825 12.153 4.16608 11.4956 4.16689 10.8334Z" fill="var(--fill-0, #09090B)"/>
</g>
</svg>
