<svg preserveAspectRatio="none" width="100%" height="100%" overflow="visible" style="display: block;" viewBox="0 0 16 17" fill="none" xmlns="http://www.w3.org/2000/svg">
<path id="Icon" d="M2.52475 17V13.345C1.72525 12.6083 1.10458 11.7477 0.662748 10.7631C0.220916 9.77854 0 8.74083 0 7.65C0 5.525 0.736386 3.71875 2.20916 2.23125C3.68193 0.74375 5.4703 0 7.57426 0C9.32756 0 10.881 0.520625 12.2345 1.56188C13.5881 2.60313 14.4682 3.95958 14.875 5.63125L15.9691 9.9875C16.0392 10.2567 15.9901 10.501 15.8218 10.7206C15.6535 10.9402 15.429 11.05 15.1485 11.05H13.4653V13.6C13.4653 14.0675 13.3005 14.4677 12.9709 14.8006C12.6413 15.1335 12.245 15.3 11.7822 15.3H10.099V17H8.41584V13.6H11.7822V13.6V13.6V9.35H14.0545L13.255 6.05625C12.9323 4.76708 12.245 3.71875 11.1931 2.91125C10.1411 2.10375 8.93482 1.7 7.57426 1.7C5.94719 1.7 4.55858 2.27375 3.40842 3.42125C2.25825 4.56875 1.68317 5.96417 1.68317 7.6075C1.68317 8.4575 1.85499 9.265 2.19864 10.03C2.54229 10.795 3.0297 11.475 3.66089 12.07L4.20792 12.58V17H2.52475V17M7.86881 9.35V9.35V9.35V9.35V9.35V9.35V9.35V9.35V9.35V9.35V9.35V9.35V9.35V9.35V9.35V9.35V9.35V9.35M6.73267 11.05H8.41584L8.54208 9.9875C8.65429 9.945 8.75598 9.89542 8.84715 9.83875C8.93832 9.78208 9.01898 9.71833 9.08911 9.6475L10.0569 10.0725L10.8985 8.6275L10.0569 7.99C10.085 7.87667 10.099 7.76333 10.099 7.65C10.099 7.53667 10.085 7.42333 10.0569 7.31L10.8985 6.6725L10.0569 5.2275L9.08911 5.6525C9.01898 5.58167 8.93832 5.51792 8.84715 5.46125C8.75598 5.40458 8.65429 5.355 8.54208 5.3125L8.41584 4.25H6.73267L6.60644 5.3125C6.49422 5.355 6.39253 5.40458 6.30136 5.46125C6.21019 5.51792 6.12954 5.58167 6.05941 5.6525L5.09158 5.2275L4.25 6.6725L5.09158 7.31C5.06353 7.42333 5.0495 7.53667 5.0495 7.65C5.0495 7.76333 5.06353 7.87667 5.09158 7.99L4.25 8.6275L5.09158 10.0725L6.05941 9.6475C6.12954 9.71833 6.21019 9.78208 6.30136 9.83875C6.39253 9.89542 6.49422 9.945 6.60644 9.9875L6.73267 11.05V11.05M7.57426 8.925C7.2236 8.925 6.92554 8.80104 6.68007 8.55313C6.43461 8.30521 6.31188 8.00417 6.31188 7.65C6.31188 7.29583 6.43461 6.99479 6.68007 6.74688C6.92554 6.49896 7.2236 6.375 7.57426 6.375C7.92492 6.375 8.22298 6.49896 8.46844 6.74688C8.7139 6.99479 8.83663 7.29583 8.83663 7.65C8.83663 8.00417 8.7139 8.30521 8.46844 8.55313C8.22298 8.80104 7.92492 8.925 7.57426 8.925V8.925" fill="var(--fill-0, #09090B)"/>
</svg>
