<svg preserveAspectRatio="none" width="100%" height="100%" overflow="visible" style="display: block;" viewBox="0 0 39.7887 39.7887" fill="none" xmlns="http://www.w3.org/2000/svg">
<path id="Star 1" d="M17.192 3.00009C17.9592 1.40848 18.3429 0.612673 18.8306 0.306337C19.4809 -0.102112 20.3077 -0.102112 20.9581 0.306337C21.4458 0.612673 21.8294 1.40848 22.5967 3.00009L26.7576 11.6314C26.9076 11.9424 26.9825 12.098 27.0801 12.2354C27.2101 12.4186 27.3701 12.5785 27.5533 12.7086C27.6907 12.8061 27.8462 12.8811 28.1573 13.031L36.7886 17.192C38.3802 17.9592 39.176 18.3429 39.4823 18.8306C39.8908 19.4809 39.8908 20.3077 39.4823 20.9581C39.176 21.4458 38.3802 21.8294 36.7886 22.5967L28.1573 26.7576C27.8462 26.9076 27.6907 26.9825 27.5533 27.0801C27.3701 27.2101 27.2101 27.3701 27.0801 27.5533C26.9825 27.6907 26.9076 27.8462 26.7576 28.1573L22.5967 36.7886C21.8294 38.3802 21.4458 39.176 20.9581 39.4823C20.3077 39.8908 19.4809 39.8908 18.8306 39.4823C18.3429 39.176 17.9592 38.3802 17.192 36.7886L13.031 28.1573C12.8811 27.8462 12.8061 27.6907 12.7086 27.5533C12.5785 27.3701 12.4186 27.2101 12.2354 27.0801C12.098 26.9825 11.9424 26.9076 11.6314 26.7576L3.00009 22.5967C1.40848 21.8294 0.612673 21.4458 0.306337 20.9581C-0.102112 20.3077 -0.102112 19.4809 0.306337 18.8306C0.612673 18.3429 1.40848 17.9592 3.00009 17.192L11.6314 13.031C11.9424 12.8811 12.098 12.8061 12.2354 12.7086C12.4186 12.5785 12.5785 12.4186 12.7086 12.2354C12.8061 12.098 12.8811 11.9424 13.031 11.6314L17.192 3.00009Z" fill="var(--fill-0, #B0F809)"/>
</svg>
