<svg preserveAspectRatio="none" width="100%" height="100%" overflow="visible" style="display: block;" viewBox="0 0 22.3943 22.3943" fill="none" xmlns="http://www.w3.org/2000/svg">
<path id="Star 2" d="M9.84598 1.50004C10.2296 0.704239 10.4214 0.306337 10.6653 0.153168C10.9905 -0.0510561 11.4039 -0.0510561 11.729 0.153168C11.9729 0.306337 12.1647 0.70424 12.5484 1.50005L15.0354 6.65911C15.1104 6.81464 15.1479 6.8924 15.1966 6.9611C15.2616 7.0527 15.3416 7.13269 15.4332 7.19771C15.5019 7.24647 15.5797 7.28396 15.7352 7.35893L20.8943 9.84598C21.6901 10.2296 22.088 10.4214 22.2412 10.6653C22.4454 10.9905 22.4454 11.4039 22.2412 11.729C22.088 11.9729 21.6901 12.1647 20.8943 12.5484L15.7352 15.0354C15.5797 15.1104 15.5019 15.1479 15.4332 15.1966C15.3416 15.2616 15.2616 15.3416 15.1966 15.4332C15.1479 15.5019 15.1104 15.5797 15.0354 15.7352L12.5484 20.8943C12.1647 21.6901 11.9729 22.088 11.729 22.2412C11.4039 22.4454 10.9905 22.4454 10.6653 22.2412C10.4214 22.088 10.2296 21.6901 9.84598 20.8943L7.35893 15.7352C7.28396 15.5797 7.24647 15.5019 7.19771 15.4332C7.13269 15.3416 7.0527 15.2616 6.9611 15.1966C6.8924 15.1479 6.81464 15.1104 6.65911 15.0354L1.50004 12.5484C0.704239 12.1647 0.306337 11.9729 0.153168 11.729C-0.0510561 11.4039 -0.0510561 10.9905 0.153168 10.6653C0.306337 10.4214 0.70424 10.2296 1.50005 9.84598L6.65911 7.35893C6.81464 7.28396 6.8924 7.24647 6.9611 7.19771C7.0527 7.13269 7.13269 7.0527 7.19771 6.9611C7.24647 6.8924 7.28396 6.81464 7.35893 6.65911L9.84598 1.50004Z" fill="var(--fill-0, #B0F809)"/>
</svg>
