<svg preserveAspectRatio="none" width="100%" height="100%" overflow="visible" style="display: block;" viewBox="0 0 76 76" fill="none" xmlns="http://www.w3.org/2000/svg">
<g id="lineicons:trend-up-1" filter="url(#filter0_f_0_32)">
<rect x="2" y="2" width="72" height="72" rx="36" fill="var(--fill-0, #D9FF98)"/>
<path id="Vector" fill-rule="evenodd" clip-rule="evenodd" d="M30.1387 21.7622C30.4199 22.1545 30.5339 22.6424 30.4555 23.1187C30.3772 23.595 30.113 24.0207 29.721 24.3023C28.1506 25.4305 26.871 26.9161 25.9881 28.6363C25.1051 30.3565 24.644 32.2621 24.6429 34.1957C24.6429 34.6788 24.451 35.142 24.1094 35.4836C23.7678 35.8251 23.3045 36.017 22.8214 36.017C22.3384 36.017 21.8751 35.8251 21.5335 35.4836C21.1919 35.142 21 34.6788 21 34.1957C21.0009 31.6836 21.5995 29.2078 22.7464 26.9728C23.8934 24.7378 25.5557 22.8077 27.596 21.3421C27.7904 21.2025 28.0103 21.1025 28.2433 21.048C28.4763 20.9934 28.7178 20.9853 28.9539 21.0241C29.19 21.0629 29.4162 21.1478 29.6195 21.2741C29.8228 21.4003 29.9992 21.5678 30.1387 21.7622ZM30.2723 27.2359C31.8008 25.7074 33.7483 24.6666 35.8685 24.245C37.9887 23.8234 40.1863 24.04 42.1833 24.8674C44.1804 25.6948 45.8872 27.0959 47.0878 28.8934C48.2885 30.6908 48.9291 32.804 48.9286 34.9655V43.465C48.9286 44.1091 49.1844 44.7267 49.6399 45.1822C50.0953 45.6376 50.713 45.8934 51.3571 45.8934C51.6792 45.8934 51.9881 46.0213 52.2158 46.2491C52.4435 46.4768 52.5714 46.7856 52.5714 47.1076C52.5714 47.4297 52.4435 47.7385 52.2158 47.9662C51.9881 48.1939 51.6792 48.3218 51.3571 48.3218H24.6429C24.3208 48.3218 24.012 48.1939 23.7842 47.9662C23.5565 47.7385 23.4286 47.4297 23.4286 47.1076C23.4286 46.7856 23.5565 46.4768 23.7842 46.2491C24.012 46.0213 24.3208 45.8934 24.6429 45.8934C25.287 45.8934 25.9047 45.6376 26.3601 45.1822C26.8156 44.7267 27.0714 44.1091 27.0714 43.465V34.9655C27.0714 33.5305 27.3541 32.1094 27.9033 30.7836C28.4525 29.4577 29.2575 28.2531 30.2723 27.2383M33.75 53.1787C33.75 52.6956 33.9419 52.2324 34.2835 51.8908C34.6251 51.5493 35.0884 51.3574 35.5714 51.3574H40.4286C40.9116 51.3574 41.3749 51.5493 41.7165 51.8908C42.0581 52.2324 42.25 52.6956 42.25 53.1787C42.25 53.6617 42.0581 54.125 41.7165 54.4665C41.3749 54.8081 40.9116 55 40.4286 55H35.5714C35.0884 55 34.6251 54.8081 34.2835 54.4665C33.9419 54.125 33.75 53.6617 33.75 53.1787ZM48.404 21.3421C48.2095 21.2026 47.9893 21.1027 47.7562 21.0483C47.5231 20.9938 47.2815 20.9858 47.0453 21.0247C46.809 21.0636 46.5828 21.1486 46.3794 21.275C46.1761 21.4013 45.9996 21.5665 45.8601 21.761C45.7205 21.9555 45.6207 22.1756 45.5662 22.4087C45.5118 22.6419 45.5038 22.8834 45.5427 23.1196C45.5816 23.3558 45.6666 23.5821 45.793 23.7854C45.9193 23.9888 46.0845 24.1652 46.279 24.3048C47.8488 25.4325 49.1279 26.9172 50.0108 28.6366C50.8938 30.3559 51.3552 32.2605 51.3571 34.1933C51.3571 34.6763 51.549 35.1396 51.8906 35.4812C52.2322 35.8227 52.6955 36.0146 53.1786 36.0146C53.6616 36.0146 54.1249 35.8227 54.4665 35.4812C54.8081 35.1396 55 34.6763 55 34.1933C54.9987 31.6816 54.3999 29.2063 53.253 26.9717C52.1061 24.7372 50.444 22.8075 48.404 21.3421Z" fill="var(--fill-0, white)"/>
</g>
<defs>
<filter id="filter0_f_0_32" x="0" y="0" width="76" height="76" filterUnits="userSpaceOnUse" color-interpolation-filters="sRGB">
<feFlood flood-opacity="0" result="BackgroundImageFix"/>
<feBlend mode="normal" in="SourceGraphic" in2="BackgroundImageFix" result="shape"/>
<feGaussianBlur stdDeviation="1" result="effect1_foregroundBlur_0_32"/>
</filter>
</defs>
</svg>
