<svg preserveAspectRatio="none" width="100%" height="100%" overflow="visible" style="display: block;" viewBox="0 0 58 58" fill="none" xmlns="http://www.w3.org/2000/svg">
<g id="lineicons:trend-up-1" opacity="0.5">
<rect width="58" height="58" rx="29" fill="var(--fill-0, #B0F809)"/>
<path id="Vector" d="M18.2286 17.1143C18.2286 16.8188 18.1112 16.5353 17.9022 16.3264C17.6932 16.1174 17.4098 16 17.1143 16C16.8188 16 16.5353 16.1174 16.3264 16.3264C16.1174 16.5353 16 16.8188 16 17.1143V38.6571C16 39.5437 16.3522 40.394 16.9791 41.0209C17.606 41.6478 18.4563 42 19.3429 42H40.8857C41.1812 42 41.4647 41.8826 41.6736 41.6736C41.8826 41.4647 42 41.1812 42 40.8857C42 40.5902 41.8826 40.3068 41.6736 40.0978C41.4647 39.8888 41.1812 39.7714 40.8857 39.7714H19.3429C19.0473 39.7714 18.7639 39.654 18.5549 39.4451C18.346 39.2361 18.2286 38.9527 18.2286 38.6571V34.5417L24.84 27.9303L29.9241 33.0159C30.133 33.2246 30.4163 33.3418 30.7115 33.3418C31.0068 33.3418 31.29 33.2246 31.499 33.0159L37.9098 26.605V29.1738C37.9098 29.4694 38.0272 29.7528 38.2362 29.9617C38.4452 30.1707 38.7286 30.2881 39.0241 30.2881C39.3196 30.2881 39.6031 30.1707 39.812 29.9617C40.021 29.7528 40.1384 29.4694 40.1384 29.1738V23.9189C40.1384 23.6233 40.021 23.3399 39.812 23.1309C39.6031 22.922 39.3196 22.8046 39.0241 22.8046H33.7706C33.4751 22.8046 33.1917 22.922 32.9827 23.1309C32.7737 23.3399 32.6563 23.6233 32.6563 23.9189C32.6563 24.2144 32.7737 24.4978 32.9827 24.7068C33.1917 24.9157 33.4751 25.0331 33.7706 25.0331H36.329L30.713 30.6491L25.6274 25.568C25.4185 25.3593 25.1353 25.2421 24.84 25.2421C24.5447 25.2421 24.2615 25.3593 24.0526 25.568L18.2286 31.392V17.1143Z" fill="var(--fill-0, black)"/>
</g>
</svg>
