<svg width="64" height="64" viewBox="0 0 64 64" fill="none" xmlns="http://www.w3.org/2000/svg">
<g clip-path="url(#clip0_232_5031)">
<path d="M10.6221 0.78125H53.3779C53.5 0.78125 53.5985 0.879943 53.5986 1.00195V56.585C53.5985 60.2423 50.622 63.2186 46.9648 63.2188H10.6221C10.5001 63.2187 10.4014 63.1201 10.4014 62.998V1.00195C10.4015 0.88 10.5001 0.781342 10.6221 0.78125Z" fill="white" stroke="#CCCCD0" stroke-width="1.5625"/>
<path d="M39.4823 56.5844V52.3088C39.4823 51.7554 39.0336 51.3066 38.4801 51.3066H1.00213C0.44875 51.3066 0 51.7553 0 52.3088V56.5844C0 60.6799 3.32 63.9999 7.4155 63.9999H46.8978C42.8023 63.9999 39.4823 60.6799 39.4823 56.5844Z" fill="#CCCCD0"/>
<path d="M33.0687 7.48242H15.9665C15.413 7.48242 14.9644 7.93092 14.9644 8.48455V28.7935C14.9644 29.347 15.4129 29.7957 15.9665 29.7957H33.0687C33.6222 29.7957 34.0709 29.3472 34.0709 28.7935V8.48455C34.0709 7.93092 33.6224 7.48242 33.0687 7.48242Z" fill="#B0F809"/>
<path d="M24.5177 19.2404C26.9122 19.2404 28.86 17.2925 28.86 14.898C28.86 12.5035 26.9122 10.5557 24.5177 10.5557C22.1232 10.5557 20.1753 12.5035 20.1753 14.898C20.1753 17.2925 22.1232 19.2404 24.5177 19.2404Z" fill="#010214"/>
<path d="M26.6556 19.2402H22.3801C20.646 19.2402 19.2402 20.646 19.2402 22.3801V29.7956H29.7956V22.3801C29.7955 20.646 28.3897 19.2402 26.6556 19.2402Z" fill="#010214"/>
<path d="M48.0329 11.6244H37.3439C36.7904 11.6244 36.3418 11.1759 36.3418 10.6222C36.3418 10.0687 36.7903 9.62012 37.3439 9.62012H48.0329C48.5864 9.62012 49.035 10.0686 49.035 10.6222C49.035 11.1757 48.5865 11.6244 48.0329 11.6244Z" fill="#ACAAA9"/>
<path d="M48.0329 16.9691H37.3439C36.7904 16.9691 36.3418 16.5206 36.3418 15.967C36.3418 15.4135 36.7903 14.9648 37.3439 14.9648H48.0329C48.5864 14.9648 49.035 15.4133 49.035 15.967C49.035 16.5206 48.5865 16.9691 48.0329 16.9691Z" fill="#ACAAA9"/>
<path d="M48.0329 22.3128H37.3439C36.7904 22.3128 36.3418 21.8643 36.3418 21.3107C36.3418 20.7572 36.7903 20.3086 37.3439 20.3086H48.0329C48.5864 20.3086 49.035 20.7571 49.035 21.3107C49.035 21.8643 48.5865 22.3128 48.0329 22.3128Z" fill="#ACAAA9"/>
<path d="M48.0329 27.6576H37.3439C36.7904 27.6576 36.3418 27.2091 36.3418 26.6554C36.3418 26.1018 36.7903 25.6533 37.3439 25.6533H48.0329C48.5864 25.6533 49.035 26.1018 49.035 26.6554C49.035 27.2091 48.5865 27.6576 48.0329 27.6576Z" fill="#ACAAA9"/>
<path d="M20.2419 36.2093H19.173C18.6195 36.2093 18.1709 35.7608 18.1709 35.2072C18.1709 34.6536 18.6194 34.2051 19.173 34.2051H20.2419C20.7954 34.2051 21.244 34.6536 21.244 35.2072C21.244 35.7608 20.7955 36.2093 20.2419 36.2093Z" fill="#ACAAA9"/>
<path d="M39.4823 36.2093H24.5177C23.9642 36.2093 23.5156 35.7608 23.5156 35.2072C23.5156 34.6536 23.9641 34.2051 24.5177 34.2051H39.4823C40.0358 34.2051 40.4844 34.6536 40.4844 35.2072C40.4844 35.7608 40.0358 36.2093 39.4823 36.2093Z" fill="#ACAAA9"/>
<path d="M20.2419 41.5531H19.173C18.6195 41.5531 18.1709 41.1046 18.1709 40.551C18.1709 39.9975 18.6194 39.5488 19.173 39.5488H20.2419C20.7954 39.5488 21.244 39.9973 21.244 40.551C21.244 41.1046 20.7955 41.5531 20.2419 41.5531Z" fill="#ACAAA9"/>
<path d="M39.4823 41.5531H24.5177C23.9642 41.5531 23.5156 41.1046 23.5156 40.551C23.5156 39.9975 23.9641 39.5488 24.5177 39.5488H39.4823C40.0358 39.5488 40.4844 39.9973 40.4844 40.551C40.4844 41.1046 40.0358 41.5531 39.4823 41.5531Z" fill="#ACAAA9"/>
<path d="M20.2419 46.8978H19.173C18.6195 46.8978 18.1709 46.4493 18.1709 45.8957C18.1709 45.3422 18.6194 44.8936 19.173 44.8936H20.2419C20.7954 44.8936 21.244 45.3421 21.244 45.8957C21.244 46.4492 20.7955 46.8978 20.2419 46.8978Z" fill="#ACAAA9"/>
<path d="M39.4823 46.8978H24.5177C23.9642 46.8978 23.5156 46.4493 23.5156 45.8957C23.5156 45.3422 23.9641 44.8936 24.5177 44.8936H39.4823C40.0358 44.8936 40.4844 45.3421 40.4844 45.8957C40.4844 46.4492 40.0358 46.8978 39.4823 46.8978Z" fill="#ACAAA9"/>
</g>
<defs>
<clipPath id="clip0_232_5031">
<rect width="64" height="64" fill="white"/>
</clipPath>
</defs>
</svg>
