<svg preserveAspectRatio="none" width="100%" height="100%" overflow="visible" style="display: block;" viewBox="0 0 22.6345 22.6176" fill="none" xmlns="http://www.w3.org/2000/svg">
<path id="Vector" fill-rule="evenodd" clip-rule="evenodd" d="M19.9454 0H2.69002C1.97719 -5.93404e-07 1.29351 0.282931 0.789136 0.786651C0.284766 1.29037 0.000951367 1.97369 3.15904e-05 2.68651V19.9146C-0.00168142 20.268 0.0662881 20.6184 0.200054 20.9456C0.333821 21.2728 0.530761 21.5704 0.779617 21.8214C1.02847 22.0724 1.32436 22.272 1.65038 22.4086C1.97639 22.5452 2.32613 22.6162 2.6796 22.6176H19.9476C20.3009 22.6172 20.6507 22.5472 20.977 22.4116C21.3032 22.2759 21.5996 22.0774 21.8491 21.8272C22.0986 21.5771 22.2964 21.2802 22.4312 20.9536C22.5659 20.627 22.635 20.277 22.6345 19.9237V2.68651C22.6336 1.97384 22.3499 1.29065 21.8457 0.786957C21.3415 0.283263 20.6581 0.000229303 19.9454 0V0ZM9.76207 16.2909C9.76104 16.5294 9.66535 16.7576 9.49604 16.9256C9.32673 17.0935 9.09766 17.1873 8.85919 17.1864H5.08454C4.84775 17.1853 4.62104 17.0904 4.45397 16.9226C4.2869 16.7548 4.19305 16.5277 4.19294 16.2909V5.06889C4.19282 4.83202 4.28659 4.60477 4.45371 4.43692C4.62084 4.26907 4.84768 4.1743 5.08454 4.17338H8.85572C9.09294 4.1743 9.32019 4.26894 9.48793 4.43668C9.65567 4.60442 9.75031 4.83166 9.75123 5.06889L9.76207 16.2909ZM18.4624 11.1383C18.4624 11.3758 18.3681 11.6036 18.2002 11.7716C18.0322 11.9397 17.8045 12.0341 17.5669 12.0342H13.7853C13.548 12.0333 13.3207 11.9386 13.153 11.7708C12.9852 11.6029 12.8906 11.3756 12.8898 11.1383V5.06889C12.8907 4.83166 12.9854 4.60442 13.1531 4.43668C13.3209 4.26894 13.5481 4.1743 13.7853 4.17338H17.5561C17.793 4.17418 18.02 4.2689 18.1872 4.43677C18.3544 4.60463 18.4482 4.83195 18.4481 5.06889L18.4624 11.1383Z" fill="url(#paint0_linear_0_48)"/>
<defs>
<linearGradient id="paint0_linear_0_48" x1="11.3162" y1="22.6176" x2="11.3162" y2="0" gradientUnits="userSpaceOnUse">
<stop stop-color="#0052CC"/>
<stop offset="1" stop-color="#2684FF"/>
</linearGradient>
</defs>
</svg>
