<svg preserveAspectRatio="none" width="100%" height="100%" overflow="visible" style="display: block;" viewBox="0 0 27.9751 28.713" fill="none" xmlns="http://www.w3.org/2000/svg">
<path id="Vector" d="M14.5607 17.066V13.1434H27.7792C27.9084 13.8271 27.9751 14.6358 27.9751 15.5112C27.9751 18.4542 27.1706 22.0933 24.5778 24.6861C22.0558 27.3123 18.8335 28.713 14.5649 28.713C6.653 28.713 0 22.2684 0 14.3565C0 6.44457 6.653 0 14.5649 0C18.9419 0 22.06 1.71744 24.4027 3.95595L21.6348 6.72387C19.9548 5.14816 17.6788 3.9226 14.5607 3.9226C8.78313 3.9226 4.26442 8.57887 4.26442 14.3565C4.26442 20.1341 8.78313 24.7904 14.5607 24.7904C18.3083 24.7904 20.4426 23.2855 21.8098 21.9182C22.9187 20.8094 23.6482 19.2253 23.9358 17.0619L14.5607 17.066V17.066Z" fill="var(--fill-0, #4285F4)"/>
</svg>
