<svg preserveAspectRatio="none" width="100%" height="100%" overflow="visible" style="display: block;" viewBox="0 0 17.7247 26.7746" fill="none" xmlns="http://www.w3.org/2000/svg">
<path id="Vector" d="M17.7247 0.558586V17.1577C17.7247 23.9858 13.6979 26.7746 8.93737 26.7746C4.45618 26.7746 1.75913 23.7774 0.742001 21.3263L4.27693 19.8548C4.90639 21.3596 6.44875 23.1354 8.9332 23.1354C11.9804 23.1354 13.8688 21.2554 13.8688 17.7163V16.3866H13.727C12.8183 17.5079 11.0675 18.4875 8.85817 18.4875C4.23524 18.4875 0 14.4607 0 9.27919C0 4.06017 4.23524 0 8.85817 0C11.0633 0 12.8141 0.979609 13.727 2.0676H13.8688V0.562754H17.7247V0.558586ZM14.1564 9.27919C14.1564 6.02355 11.9846 3.64331 9.22083 3.64331C6.41957 3.64331 4.07267 6.02355 4.07267 9.27919C4.07267 12.5015 6.41957 14.8484 9.22083 14.8484C11.9846 14.8484 14.1564 12.5015 14.1564 9.27919Z" fill="var(--fill-0, #4285F4)"/>
</svg>
