<svg preserveAspectRatio="none" width="100%" height="100%" overflow="visible" style="display: block;" viewBox="0 0 17.0535 18.4917" fill="none" xmlns="http://www.w3.org/2000/svg">
<path id="Vector" d="M13.727 12.293L16.8784 14.394C15.8613 15.8988 13.4102 18.4917 9.17497 18.4917C3.9226 18.4917 0 14.4315 0 9.24584C0 3.74752 3.95595 0 8.72059 0C13.5186 0 15.8655 3.81839 16.6325 5.88182L17.0535 6.93229L4.69378 12.0513C5.64004 13.9063 7.11154 14.8525 9.17497 14.8525C11.2426 14.8525 12.6765 13.8354 13.727 12.293ZM4.02681 8.96654L12.2889 5.53583C11.8345 4.38114 10.4672 3.57661 8.85816 3.57661C6.79473 3.57661 3.9226 5.39827 4.02681 8.96654V8.96654Z" fill="var(--fill-0, #F44336)"/>
</svg>
