<svg preserveAspectRatio="none" width="100%" height="100%" overflow="visible" style="display: block;" viewBox="0 0 96 29.037" fill="none" xmlns="http://www.w3.org/2000/svg">
<path id="Vector" fill-rule="evenodd" clip-rule="evenodd" d="M67.5917 20.4324C70.8907 20.4324 73.5739 17.8024 73.5739 14.5698C73.5739 11.337 70.8907 8.70708 67.5917 8.70708C64.2933 8.70708 61.6095 11.337 61.6095 14.5698C61.6095 17.8024 64.2933 20.4324 67.5917 20.4324ZM73.5739 0H73.7363H76.4083V23.2296H73.5739V20.9102C71.9384 22.3959 69.8293 23.2098 67.5917 23.2098C62.7307 23.2098 58.7757 19.3338 58.7757 14.5698C58.7757 9.80539 62.7307 5.9296 67.5917 5.9296C69.8293 5.9296 71.9384 6.74335 73.5739 8.22916V0ZM8.81642 20.33C12.115 20.33 14.7986 17.7001 14.7986 14.4674C14.7986 11.2348 12.115 8.60486 8.81642 8.60486C5.51769 8.60486 2.83407 11.2348 2.83407 14.4674C2.83407 17.7001 5.51769 20.33 8.81642 20.33ZM2.83407 8.12711C4.46975 6.6413 6.57926 5.82743 8.81642 5.82743C13.6776 5.82743 17.6326 9.70335 17.6326 14.4674C17.6326 19.2315 13.6776 23.1074 8.81642 23.1074C6.57926 23.1074 4.46975 22.2937 2.83407 20.8078V29.037H0V5.80741H2.83407V8.12711ZM23.0402 13.1184C23.678 10.493 26.0547 8.60782 28.7656 8.60782C31.4412 8.60782 33.6824 10.4527 34.2797 13.1184H23.0402ZM28.7656 5.80741C23.9772 5.80741 20.0817 9.71538 20.0817 14.5185C20.0817 19.3218 23.9772 23.2296 28.7656 23.2296C31.4471 23.2296 33.9082 22.2226 35.5188 20.4667L36.3556 19.554L36.4634 19.4363L36.3461 19.3276L34.5268 17.649L34.4095 17.5405L34.301 17.6583L33.4643 18.5711C32.397 19.7346 30.6406 20.4294 28.7656 20.4294C26.0547 20.4294 23.6782 18.5442 23.0402 15.9186H37.2243V14.5185C37.2243 9.63378 33.5087 5.80741 28.7656 5.80741ZM93.1656 14.5186C93.1656 17.7778 90.4824 20.4293 87.1834 20.4293C83.885 20.4293 81.2012 17.7778 81.2012 14.5186C81.2012 11.2593 83.885 8.6077 87.1834 8.6077C90.4824 8.6077 93.1656 11.2593 93.1656 14.5186ZM87.1834 5.80741C82.3224 5.80741 78.3674 9.7152 78.3674 14.5186C78.3674 19.3218 82.3224 23.2296 87.1834 23.2296C92.045 23.2296 96 19.3218 96 14.5186C96 9.7152 92.045 5.80741 87.1834 5.80741ZM47.7547 5.80741C45.7855 5.80741 43.9093 6.55733 42.4326 7.92699V5.80741H39.6735V23.2296H42.4326V14.3388C42.4326 11.1668 44.8201 8.58596 47.7547 8.58596C50.6898 8.58596 53.0779 11.1668 53.0779 14.3388V23.2296H55.8364V14.3388C55.8364 9.63461 52.211 5.80741 47.7547 5.80741Z" fill="var(--fill-0, #09090B)"/>
</svg>
