<svg preserveAspectRatio="none" width="100%" height="100%" overflow="visible" style="display: block;" viewBox="0 0 178.5 28" fill="none" xmlns="http://www.w3.org/2000/svg">
<path id="Vector" d="M175.036 8.14C175.036 8.318 174.79 8.396 174.674 8.26C173.764 7.202 172.26 6.4 170.202 6.4C165.748 6.4 163.216 9.996 163.216 14.35C163.216 18.676 165.748 22.27 170.202 22.27C172.288 22.27 173.918 21.54 174.93 20.28C175.044 20.14 175.298 20.216 175.298 20.396V21.742C175.298 21.842 175.378 21.922 175.476 21.922H178.32C178.42 21.922 178.5 21.842 178.5 21.742V0.18C178.5 0.132261 178.481 0.0864773 178.447 0.0527208C178.414 0.0189642 178.368 0 178.32 0L175.214 0C175.167 0.000526605 175.121 0.0197231 175.088 0.0534227C175.055 0.0871223 175.036 0.132606 175.036 0.18V8.14ZM175.18 14.35C175.18 17.07 173.58 19.202 170.93 19.202C168.31 19.202 166.68 17.068 166.68 14.35C166.68 11.574 168.31 9.47 170.93 9.47C173.58 9.47 175.18 11.574 175.18 14.35ZM162.352 6.8C162.352 6.75512 162.335 6.71184 162.305 6.67884C162.274 6.64583 162.233 6.62553 162.188 6.622C162.078 6.6135 161.967 6.60817 161.856 6.606C159.716 6.606 158.47 7.464 157.784 8.304C157.668 8.444 157.402 8.368 157.402 8.184V6.93C157.402 6.88261 157.383 6.83712 157.35 6.80342C157.317 6.76972 157.271 6.75053 157.224 6.75H154.378C154.331 6.75053 154.285 6.76972 154.252 6.80342C154.219 6.83712 154.2 6.88261 154.2 6.93V21.742C154.2 21.842 154.28 21.922 154.378 21.922H157.486C157.533 21.9215 157.579 21.9023 157.612 21.8686C157.645 21.8349 157.664 21.7894 157.664 21.742V14.03C157.664 11.106 159.12 9.82 161.566 9.82C161.774 9.82 161.994 9.84 162.146 9.854C162.172 9.85677 162.197 9.85422 162.222 9.8465C162.246 9.83878 162.269 9.82606 162.288 9.80915C162.308 9.79224 162.323 9.77149 162.334 9.74823C162.345 9.72497 162.351 9.6997 162.352 9.674V6.8ZM147.682 14.82C147.708 14.8163 147.734 14.8181 147.758 14.8253C147.783 14.8325 147.806 14.845 147.826 14.8619C147.845 14.8788 147.861 14.8997 147.872 14.9232C147.882 14.9467 147.888 14.9722 147.888 14.998V15.754C147.888 17.8 146.52 19.554 143.724 19.554C142.064 19.554 141.044 18.998 141.044 17.566C141.044 16.514 141.744 15.726 143.87 15.402L147.682 14.822V14.82ZM143.026 22.272C145.18 22.272 146.8 21.644 147.85 20.412C147.964 20.276 148.214 20.352 148.222 20.532C148.264 21.402 148.388 21.92 148.412 21.92H151.43C151.558 21.92 151.648 21.788 151.608 21.666C151.398 21.002 151.264 19.926 151.264 19.056V12.07C151.264 8.592 149.168 6.4 144.744 6.4C140.286 6.4 138.46 8.736 138.1 11.318C138.097 11.3428 138.1 11.368 138.107 11.3918C138.115 11.4156 138.127 11.4376 138.144 11.4563C138.16 11.4749 138.181 11.4899 138.204 11.5002C138.226 11.5105 138.251 11.5159 138.276 11.516H141.302C141.39 11.516 141.462 11.452 141.482 11.366C141.764 10.052 142.832 9.266 144.656 9.266C146.722 9.266 147.888 10.2 147.888 12.042V12.12C147.888 12.1632 147.872 12.205 147.844 12.2377C147.816 12.2703 147.777 12.2918 147.734 12.298L143.52 12.89C139.532 13.444 137.728 15.11 137.728 17.682C137.728 20.282 139.27 22.272 143.026 22.272V22.272ZM128.558 22.272C133.39 22.272 136.418 18.618 136.418 14.352C136.418 10.084 133.39 6.4 128.558 6.4C123.754 6.4 120.728 10.084 120.728 14.35C120.728 18.618 123.754 22.27 128.558 22.27V22.272ZM124.192 14.352C124.192 11.398 126.054 9.47 128.558 9.47C131.092 9.47 132.954 11.398 132.954 14.35C132.954 17.274 131.092 19.202 128.558 19.202C126.054 19.202 124.192 17.274 124.192 14.35V14.352ZM107.97 8.26C107.854 8.396 107.61 8.318 107.61 8.14V0.18C107.61 0.132261 107.591 0.0864773 107.557 0.0527208C107.524 0.0189642 107.478 0 107.43 0L104.324 0C104.276 0 104.23 0.0189642 104.197 0.0527208C104.163 0.0864773 104.144 0.132261 104.144 0.18V21.74C104.144 21.84 104.224 21.92 104.324 21.92H107.168C107.268 21.92 107.348 21.84 107.348 21.74V20.38C107.348 20.2 107.596 20.124 107.708 20.264C108.742 21.534 110.374 22.272 112.442 22.272C116.924 22.272 119.458 18.676 119.458 14.352C119.458 9.996 116.924 6.4 112.442 6.4C110.408 6.4 108.886 7.202 107.97 8.26V8.26ZM107.492 14.35C107.492 11.574 109.092 9.47 111.742 9.47C114.362 9.47 115.994 11.574 115.994 14.35C115.994 17.07 114.362 19.202 111.742 19.202C109.094 19.202 107.492 17.068 107.492 14.35V14.35ZM101.202 19.062C101.201 19.0339 101.194 19.0063 101.181 18.9812C101.169 18.9561 101.151 18.9341 101.129 18.9167C101.106 18.8993 101.081 18.8871 101.053 18.8807C101.026 18.8744 100.998 18.8741 100.97 18.88C100.77 18.92 100.462 18.97 100.126 18.97C98.932 18.97 98.438 18.384 98.438 17.186V9.706C98.4385 9.65861 98.4577 9.61334 98.4914 9.58001C98.5251 9.54669 98.5706 9.528 98.618 9.528H101.082C101.182 9.528 101.262 9.448 101.262 9.348V6.934C101.262 6.88626 101.243 6.84048 101.209 6.80672C101.176 6.77296 101.13 6.754 101.082 6.754H98.616C98.5924 6.754 98.569 6.74934 98.5471 6.7403C98.5253 6.73125 98.5054 6.71799 98.4887 6.70128C98.472 6.68456 98.4587 6.66472 98.4497 6.64288C98.4407 6.62104 98.436 6.59764 98.436 6.574V2.988C98.436 2.94061 98.4173 2.89512 98.384 2.86142C98.3507 2.82772 98.3054 2.80853 98.258 2.808H95.152C95.1043 2.808 95.0585 2.82696 95.0247 2.86072C94.991 2.89448 94.972 2.94026 94.972 2.988V6.576C94.972 6.59964 94.9673 6.62304 94.9583 6.64488C94.9492 6.66672 94.936 6.68656 94.9193 6.70328C94.9026 6.71999 94.8827 6.73325 94.8609 6.7423C94.839 6.75134 94.8156 6.756 94.792 6.756H92.852C92.8046 6.756 92.7591 6.77469 92.7254 6.80801C92.6917 6.84134 92.6725 6.88661 92.672 6.934V9.352C92.672 9.452 92.752 9.532 92.852 9.532H94.792C94.892 9.532 94.972 9.612 94.972 9.71V17.54C94.972 20.404 96.312 22.012 99.398 22.012C100.254 22.012 100.826 21.916 101.07 21.866C101.108 21.8577 101.142 21.8363 101.166 21.8057C101.19 21.775 101.203 21.737 101.202 21.698V19.062V19.062ZM76.766 14.35C76.766 18.734 79.852 22.27 84.306 22.27C88.678 22.27 90.946 19.298 91.434 16.63C91.4384 16.6048 91.4372 16.5789 91.4305 16.5542C91.4237 16.5295 91.4116 16.5066 91.395 16.4871C91.3784 16.4676 91.3576 16.452 91.3343 16.4414C91.311 16.4309 91.2856 16.4256 91.26 16.426H88.056C88.0158 16.4264 87.9769 16.4398 87.9451 16.4644C87.9133 16.489 87.8905 16.5232 87.88 16.562C87.432 18.124 86.088 19.202 84.276 19.202C81.802 19.202 80.23 17.186 80.23 14.35C80.23 11.486 81.802 9.47 84.276 9.47C86.088 9.47 87.432 10.548 87.88 12.11C87.902 12.19 87.974 12.246 88.056 12.246H91.26C91.2856 12.2464 91.311 12.2411 91.3343 12.2306C91.3576 12.22 91.3784 12.2044 91.395 12.1849C91.4116 12.1655 91.4237 12.1425 91.4305 12.1178C91.4372 12.0931 91.4384 12.0672 91.434 12.042C90.946 9.374 88.678 6.402 84.306 6.402C79.852 6.402 76.766 9.938 76.766 14.35V14.35ZM70.932 15.49C70.932 17.974 69.594 19.29 67.44 19.29C65.344 19.29 64.5 17.916 64.5 15.842V6.93C64.5 6.88226 64.481 6.83648 64.4473 6.80272C64.4135 6.76896 64.3677 6.75 64.32 6.75H61.214C61.1663 6.75 61.1205 6.76896 61.0867 6.80272C61.053 6.83648 61.034 6.88226 61.034 6.93V16.31C61.034 19.846 62.928 22.27 66.594 22.27C68.63 22.27 70.02 21.504 70.798 20.554C70.916 20.41 71.196 20.492 71.196 20.678V21.742C71.196 21.842 71.276 21.922 71.376 21.922H74.218C74.318 21.922 74.398 21.842 74.398 21.742V6.93C74.398 6.88226 74.379 6.83648 74.3453 6.80272C74.3115 6.76896 74.2657 6.75 74.218 6.75H71.112C71.0643 6.75 71.0185 6.76896 70.9847 6.80272C70.951 6.83648 70.932 6.88226 70.932 6.93V15.49ZM54.912 8.14C54.912 8.318 54.666 8.396 54.55 8.26C53.64 7.202 52.136 6.4 50.078 6.4C45.624 6.4 43.09 9.996 43.09 14.35C43.09 18.676 45.624 22.27 50.078 22.27C52.162 22.27 53.792 21.54 54.806 20.28C54.92 20.14 55.172 20.216 55.172 20.396V21.742C55.172 21.842 55.252 21.922 55.352 21.922H58.196C58.296 21.922 58.376 21.842 58.376 21.742V0.18C58.376 0.132261 58.357 0.0864773 58.3233 0.0527208C58.2895 0.0189642 58.2437 0 58.196 0L55.09 0C55.0423 0 54.9965 0.0189642 54.9627 0.0527208C54.929 0.0864773 54.91 0.132261 54.91 0.18V8.14H54.912ZM55.056 14.35C55.056 17.07 53.456 19.202 50.806 19.202C48.186 19.202 46.554 17.068 46.554 14.35C46.554 11.574 48.186 9.47 50.806 9.47C53.454 9.47 55.056 11.574 55.056 14.35ZM33.832 22.272C38.666 22.272 41.692 18.618 41.692 14.352C41.692 10.082 38.668 6.4 33.832 6.4C29.03 6.4 26.002 10.084 26.002 14.35C26.002 18.618 29.03 22.27 33.832 22.27V22.272ZM29.466 14.352C29.466 11.398 31.328 9.47 33.832 9.47C36.366 9.47 38.228 11.398 38.228 14.35C38.228 17.274 36.366 19.202 33.832 19.202C31.328 19.202 29.466 17.274 29.466 14.35V14.352ZM25.604 6.8C25.6041 6.75512 25.5873 6.71184 25.5569 6.67884C25.5265 6.64583 25.4847 6.62553 25.44 6.622C25.3302 6.6135 25.2201 6.60817 25.11 6.606C22.97 6.606 21.722 7.464 21.036 8.304C20.92 8.444 20.656 8.368 20.656 8.184V6.93C20.656 6.88226 20.637 6.83648 20.6033 6.80272C20.5695 6.76896 20.5237 6.75 20.476 6.75H17.632C17.5843 6.75 17.5385 6.76896 17.5047 6.80272C17.471 6.83648 17.452 6.88226 17.452 6.93V21.742C17.452 21.842 17.532 21.922 17.632 21.922H20.738C20.838 21.922 20.918 21.842 20.918 21.742V14.03C20.918 11.106 22.372 9.82 24.818 9.82C25.028 9.82 25.246 9.84 25.398 9.854C25.4236 9.85677 25.4494 9.85422 25.4739 9.8465C25.4984 9.83878 25.5211 9.82606 25.5404 9.80915C25.5598 9.79224 25.5754 9.77149 25.5864 9.74823C25.5973 9.72497 25.6033 9.6997 25.604 9.674V6.8ZM3.464 20.544C3.464 20.364 3.712 20.286 3.83 20.424C4.744 21.494 6.266 22.272 8.298 22.272C12.78 22.272 15.314 18.676 15.314 14.352C15.314 9.996 12.78 6.4 8.298 6.4C6.228 6.4 4.596 7.162 3.562 8.42C3.45 8.558 3.202 8.48 3.202 8.3V6.93C3.202 6.88226 3.18304 6.83648 3.14928 6.80272C3.11552 6.76896 3.06974 6.75 3.022 6.75H0.18C0.132261 6.75 0.0864795 6.76896 0.0527229 6.80272C0.0189664 6.83648 0 6.88226 0 6.93V27.82C0 27.92 0.0800003 28 0.18 28H3.286C3.386 28 3.466 27.92 3.466 27.82V20.544H3.464ZM3.348 14.35C3.348 11.544 4.948 9.41 7.598 9.41C10.218 9.41 11.85 11.544 11.85 14.35C11.85 17.07 10.218 19.202 7.598 19.202C4.95 19.202 3.348 17.068 3.348 14.35Z" fill="var(--fill-0, #09090B)"/>
</svg>
