<svg preserveAspectRatio="none" width="100%" height="100%" overflow="visible" style="display: block;" viewBox="0 0 14.9272 16.9873" fill="none" xmlns="http://www.w3.org/2000/svg">
<path id="Vector" d="M4.50659 9.97117C5.80002 10.1131 7.09983 10.1893 8.40099 10.1994C11.9396 10.1994 14.9272 9.24964 14.9272 5.82338C14.9272 2.49821 11.8563 0 8.1615 0C3.1872 0 0 3.60805 0 8.64787C0 13.8799 2.74812 16.9868 8.95938 16.9868C10.8019 17.0019 12.6312 16.675 14.3545 16.0228V12.114C12.7592 12.6251 10.9643 13.1328 9.12251 13.1328C6.64947 13.1332 4.92571 12.3206 4.50659 9.97117ZM8.06735 3.56076C9.37633 3.56076 10.4276 4.44889 10.4276 5.66372C10.4276 7.22565 8.77889 7.71592 6.87812 7.71592C6.06948 7.71203 5.26227 7.64778 4.4632 7.52371C4.52355 6.76185 4.7421 6.02095 5.1049 5.3483C5.39622 4.81542 5.82422 4.36975 6.34488 4.05711C6.86554 3.74447 7.46007 3.57614 8.06735 3.56944V3.56076Z" fill="var(--fill-0, #293856)"/>
</svg>
