<svg preserveAspectRatio="none" width="100%" height="100%" overflow="visible" style="display: block;" viewBox="0 0 128.648 22.9686" fill="none" xmlns="http://www.w3.org/2000/svg">
<path id="Vector" d="M105.403 10.5538C107.524 10.5538 108.341 11.8513 108.455 12.9812C108.457 12.9982 108.455 13.0154 108.449 13.0316C108.444 13.0479 108.435 13.0628 108.424 13.0754C108.412 13.0881 108.398 13.0981 108.382 13.105C108.367 13.1119 108.35 13.1154 108.333 13.1153H102.509C102.492 13.1153 102.474 13.1116 102.458 13.1045C102.443 13.0973 102.428 13.0868 102.417 13.0738C102.405 13.0607 102.397 13.0454 102.392 13.0288C102.387 13.0121 102.385 12.9946 102.387 12.9773C102.544 11.8734 103.523 10.5538 105.403 10.5538ZM108.595 17.7372C108.556 17.737 108.518 17.746 108.484 17.7635C108.449 17.781 108.419 17.8065 108.397 17.8378C107.872 18.5776 107.017 19.0338 105.74 19.0338C103.982 19.0338 102.455 17.8781 102.29 16.2403C102.289 16.2234 102.291 16.2063 102.296 16.1901C102.302 16.1739 102.31 16.159 102.322 16.1464C102.333 16.1338 102.347 16.1237 102.363 16.1168C102.378 16.1098 102.395 16.1062 102.412 16.1062H112.876C112.906 16.0142 112.967 15.3127 112.967 14.6716C112.967 9.79192 110.057 6.89402 105.342 6.89402C101.392 6.89402 97.7471 10.0047 97.7471 14.8853C97.7471 19.9796 101.484 22.9686 105.679 22.9686C109.471 22.9686 111.873 20.8469 112.653 18.2825C112.657 18.2671 112.683 18.1713 112.712 18.0314C112.719 17.9958 112.719 17.959 112.71 17.9237C112.702 17.8884 112.685 17.8554 112.662 17.8273C112.639 17.7991 112.61 17.7764 112.577 17.7608C112.545 17.7452 112.509 17.7372 112.472 17.7372H108.595V17.7372ZM117.848 14.8077L112.886 7.73541C112.861 7.69872 112.846 7.65569 112.843 7.61103C112.84 7.56636 112.849 7.52177 112.87 7.48213C112.891 7.44248 112.922 7.4093 112.961 7.3862C112.999 7.3631 113.043 7.35097 113.088 7.35113H117.965C118.049 7.35113 118.125 7.39234 118.171 7.46134L120.72 11.3425C120.768 11.4162 120.878 11.4153 120.926 11.3405L123.416 7.46421C123.438 7.42956 123.469 7.40104 123.505 7.38127C123.541 7.36151 123.581 7.35114 123.622 7.35113H128.22C128.419 7.35113 128.535 7.57441 128.421 7.73637L123.526 14.6227C123.497 14.6637 123.482 14.7127 123.481 14.763C123.481 14.8132 123.497 14.8623 123.525 14.9035C125.128 17.1843 126.959 19.8196 128.603 22.1262C128.718 22.2882 128.603 22.5105 128.403 22.5105H123.559C123.518 22.5107 123.478 22.5008 123.443 22.4817C123.407 22.4626 123.376 22.435 123.354 22.4013L120.711 18.3936C120.7 18.3768 120.685 18.3631 120.667 18.3535C120.649 18.344 120.629 18.339 120.609 18.339C120.589 18.339 120.569 18.344 120.551 18.3535C120.533 18.3631 120.518 18.3768 120.507 18.3936C119.715 19.5704 118.68 21.2091 117.895 22.4013C117.873 22.4351 117.842 22.4627 117.807 22.4818C117.771 22.5009 117.731 22.5107 117.69 22.5105H113.175C113.13 22.5108 113.086 22.4988 113.048 22.4758C113.01 22.4529 112.979 22.4199 112.958 22.3805C112.937 22.341 112.928 22.2966 112.93 22.2521C112.933 22.2076 112.948 22.1647 112.974 22.1281L117.848 15.0856C117.877 15.0448 117.892 14.9963 117.892 14.9466C117.892 14.897 117.877 14.8485 117.848 14.8077H117.848ZM91.5613 22.2671V0.671769C91.5613 0.536649 91.6715 0.427402 91.8066 0.427402H95.9714C96.1065 0.427402 96.2167 0.536649 96.2167 0.671769V22.2671C96.2167 22.4013 96.1065 22.5105 95.9714 22.5105H91.8066C91.7745 22.5106 91.7427 22.5044 91.713 22.4923C91.6833 22.4801 91.6563 22.4622 91.6335 22.4396C91.6108 22.417 91.5927 22.3901 91.5803 22.3605C91.5679 22.3309 91.5614 22.2992 91.5613 22.2671V22.2671ZM84.7018 22.2671V0.671769C84.7018 0.536649 84.812 0.427402 84.9471 0.427402H89.1119C89.247 0.427402 89.3562 0.536649 89.3562 0.671769V22.2671C89.3562 22.4013 89.247 22.5105 89.1119 22.5105H84.9471C84.915 22.5106 84.8832 22.5044 84.8535 22.4923C84.8238 22.4801 84.7968 22.4622 84.774 22.4396C84.7512 22.417 84.7331 22.3901 84.7207 22.3605C84.7083 22.3309 84.7019 22.2992 84.7018 22.2671V22.2671ZM74.4019 18.9418C76.2706 18.9418 77.8624 17.4785 77.8624 14.916C77.8624 12.2931 76.3003 10.9198 74.4019 10.9198C72.4116 10.9198 70.9109 12.2931 70.9109 14.916C70.9109 17.4171 72.4729 18.9427 74.4019 18.9427V18.9418ZM77.893 20.5584C77.2194 22.0227 75.6889 22.9379 73.7896 22.9379C69.3182 22.9379 66.2257 19.5522 66.2257 14.8853C66.2257 10.3717 69.1351 6.89306 73.6363 6.89306C76.3617 6.89306 77.5557 8.38801 77.8624 9.08949V7.59454C77.8624 7.46038 77.9716 7.35113 78.1077 7.35113H82.1192C82.2533 7.35113 82.3635 7.46038 82.3635 7.5955V22.2671C82.3635 22.4013 82.2543 22.5105 82.1192 22.5105H78.1106C78.0782 22.5105 78.0462 22.5041 78.0164 22.4916C77.9866 22.4792 77.9595 22.4609 77.9368 22.4379C77.914 22.4149 77.8961 22.3876 77.884 22.3577C77.8719 22.3277 77.8658 22.2956 77.8662 22.2633C77.8739 21.7122 77.893 20.4387 77.893 20.5584V20.5584ZM56.2929 7.51883L59.0825 15.9691C59.1209 16.0841 59.2838 16.0803 59.3164 15.9643L61.6997 7.52937C61.7141 7.478 61.745 7.43276 61.7875 7.40058C61.8301 7.36839 61.882 7.35102 61.9354 7.35113H65.9794C66.1452 7.35113 66.2631 7.51021 66.2142 7.66737L61.6498 22.339C61.6345 22.389 61.6034 22.4327 61.5613 22.4637C61.5193 22.4948 61.4683 22.5115 61.416 22.5115H57.1487C57.0975 22.5114 57.0476 22.4952 57.006 22.4653C56.9644 22.4354 56.9332 22.3932 56.9168 22.3447L53.7831 13.0664C53.7448 12.9553 53.5867 12.9562 53.5503 13.0664L50.4741 22.3428C50.458 22.3916 50.4269 22.434 50.3853 22.4642C50.3437 22.4943 50.2936 22.5105 50.2422 22.5105H45.8829C45.8309 22.5105 45.7802 22.494 45.7382 22.4634C45.6961 22.4327 45.6649 22.3895 45.6491 22.3399L41.0253 7.66833C41.0138 7.6317 41.0112 7.59289 41.0175 7.55505C41.0239 7.5172 41.0391 7.48139 41.0618 7.4505C41.0846 7.41961 41.1143 7.39452 41.1486 7.37726C41.1829 7.35999 41.2207 7.35104 41.2591 7.35113H45.5791C45.6884 7.35113 45.7852 7.42396 45.8149 7.52937L48.1982 15.9375C48.2307 16.0525 48.3937 16.0563 48.432 15.9423L51.2513 7.51883C51.2676 7.46997 51.2989 7.42748 51.3407 7.39738C51.3825 7.36728 51.4327 7.3511 51.4842 7.35113H56.0601C56.1655 7.35113 56.2603 7.41821 56.2929 7.51883V7.51883ZM39.7622 11.6271C39.7622 11.6627 39.7544 11.6979 39.7393 11.7302C39.7242 11.7625 39.7023 11.7911 39.675 11.8141C39.6477 11.837 39.6157 11.8537 39.5813 11.8629C39.5468 11.8722 39.5108 11.8738 39.4757 11.8676C39.0847 11.8015 38.6887 11.7701 38.2922 11.7737C36.4235 11.7737 34.7398 12.8719 34.7398 15.8915V22.2671C34.7398 22.4013 34.6305 22.5105 34.4954 22.5105H30.3306C30.2985 22.5106 30.2667 22.5044 30.237 22.4923C30.2074 22.4801 30.1803 22.4622 30.1576 22.4396C30.1348 22.417 30.1167 22.3901 30.1043 22.3605C30.0919 22.3309 30.0854 22.2992 30.0853 22.2671V7.5955C30.0853 7.46134 30.1946 7.35113 30.3306 7.35113H34.3421C34.4772 7.35113 34.5864 7.46038 34.5864 7.5955V9.39519C35.3828 7.68654 37.3128 7.19876 38.5375 7.19876C38.9093 7.19876 39.2812 7.23901 39.5715 7.30226C39.6836 7.32717 39.7622 7.42684 39.7622 7.54087V11.6271ZM23.1338 22.2671V7.5955C23.1338 7.46134 23.244 7.35113 23.3791 7.35113H27.5439C27.679 7.35113 27.7892 7.46038 27.7892 7.5955V22.2671C27.7892 22.4013 27.679 22.5105 27.5439 22.5105H23.3791C23.347 22.5106 23.3152 22.5044 23.2855 22.4923C23.2558 22.4801 23.2288 22.4622 23.206 22.4396C23.1833 22.417 23.1652 22.3901 23.1528 22.3605C23.1404 22.3309 23.1339 22.2992 23.1338 22.2671ZM25.4308 0C26.9622 0 28.1869 1.21992 28.1869 2.71487C28.1869 4.20982 26.9622 5.42974 25.4308 5.42974C23.9608 5.42974 22.7361 4.20982 22.7361 2.71487C22.7361 1.21992 23.9608 0 25.4308 0V0ZM8.30216 13.7258H13.224C13.3083 13.7258 13.3677 13.6433 13.339 13.5638L10.9087 6.58161C10.9005 6.55745 10.885 6.53645 10.8642 6.52155C10.8435 6.50665 10.8187 6.49858 10.7931 6.49848C10.7676 6.49837 10.7427 6.50623 10.7218 6.52096C10.701 6.53569 10.6853 6.55656 10.6768 6.58066L8.18812 13.5638C8.15937 13.6424 8.21879 13.7267 8.30312 13.7267L8.30216 13.7258ZM14.7544 18.1186H6.70946C6.659 18.1187 6.60979 18.1344 6.56861 18.1636C6.52743 18.1927 6.49629 18.2339 6.47947 18.2815L5.03244 22.3485C5.01556 22.3963 4.98427 22.4376 4.9429 22.4668C4.90153 22.496 4.85211 22.5116 4.80148 22.5115H0.245718C0.206079 22.5117 0.166982 22.5023 0.131798 22.484C0.0966142 22.4657 0.0664037 22.4392 0.0437667 22.4066C0.0211297 22.3741 0.0067468 22.3365 0.00186226 22.2972C-0.00302228 22.2579 0.00173687 22.2179 0.0157281 22.1808L8.00796 1.04263C8.02551 0.996102 8.05684 0.956034 8.09777 0.927781C8.13869 0.899527 8.18726 0.884432 8.23699 0.884512H13.5019C13.6035 0.884512 13.6955 0.94776 13.7309 1.04359L21.6331 22.1818C21.6467 22.2188 21.6511 22.2585 21.6461 22.2976C21.641 22.3367 21.6265 22.3739 21.604 22.4062C21.5814 22.4385 21.5513 22.4649 21.5163 22.483C21.4813 22.5012 21.4425 22.5106 21.4031 22.5105H16.6624C16.6118 22.5105 16.5624 22.4948 16.5211 22.4656C16.4797 22.4365 16.4484 22.3952 16.4314 22.3476L14.9844 18.2815C14.9675 18.234 14.9363 18.1929 14.8951 18.1637C14.854 18.1346 14.8048 18.1188 14.7544 18.1186V18.1186Z" fill="var(--fill-0, #09090B)"/>
</svg>
