<svg preserveAspectRatio="none" width="100%" height="100%" overflow="visible" style="display: block;" viewBox="0 0 34.4615 22.9702" fill="none" xmlns="http://www.w3.org/2000/svg">
<path id="Vector" fill-rule="evenodd" clip-rule="evenodd" d="M33.1709 9.02892C33.767 9.60914 34.1805 10.351 34.3605 11.1631C34.5404 11.9753 34.479 12.8223 34.1839 13.6L31.9347 19.7102C31.3444 21.3143 29.999 22.5553 28.3363 22.8793C27.5046 23.0457 26.6434 22.9829 25.8446 22.6977C25.0459 22.4124 24.3397 21.9154 23.8016 21.2597L10.3145 5.10085C10.281 5.06108 10.2376 5.03081 10.1887 5.01308C10.1398 4.99534 10.0871 4.99076 10.0359 4.99978C9.98463 5.0088 9.93667 5.03112 9.89677 5.06449C9.85687 5.09787 9.82644 5.14114 9.80851 5.18997L5.42045 17.0585C5.32941 17.3039 5.5709 17.5415 5.81048 17.4438L11.1952 15.2445C11.4987 15.1214 11.8245 15.0624 12.1519 15.0711C12.4794 15.0799 12.8015 15.1562 13.0981 15.2953C13.3946 15.4344 13.6593 15.6333 13.8753 15.8795C14.0914 16.1257 14.2543 16.4139 14.3537 16.726C14.7514 17.9459 14.0825 19.2636 12.9048 19.7447L5.87085 22.6167C4.56852 23.1485 3.07261 23.0546 1.89965 22.2717C1.10031 21.7375 0.504373 20.9495 0.20808 20.0348C-0.0882119 19.1202 -0.0675584 18.1325 0.266705 17.231L5.45112 3.21299C6.06539 1.5513 7.46451 0.378335 9.19424 0.0755122C10.0366 -0.0754432 10.904 0.000804294 11.707 0.296406C12.5101 0.592008 13.22 1.09629 13.7634 1.75733L21.5046 11.0337L28.6248 8.12524C30.2069 7.47935 31.9491 7.8253 33.1709 9.02892ZM29.0646 13.6882C29.1547 13.4429 28.9132 13.2052 28.6736 13.3039L24.7398 14.91L27.0991 17.738C27.1326 17.7782 27.1761 17.8089 27.2252 17.8269C27.2744 17.845 27.3274 17.8497 27.3789 17.8407C27.4305 17.8316 27.4787 17.8091 27.5188 17.7754C27.5588 17.7417 27.5893 17.6981 27.607 17.6488L29.0637 13.6882H29.0646Z" fill="url(#paint0_linear_0_50)"/>
<defs>
<linearGradient id="paint0_linear_0_50" x1="3.56372e-09" y1="-1.54835e-09" x2="21.2018" y2="31.8084" gradientUnits="userSpaceOnUse">
<stop stop-color="#FF4244"/>
<stop offset="1" stop-color="#FF8E3C"/>
</linearGradient>
</defs>
</svg>
