<svg preserveAspectRatio="none" width="100%" height="100%" overflow="visible" style="display: block;" viewBox="0 0 58.1127 13.0902" fill="none" xmlns="http://www.w3.org/2000/svg">
<g id="Vector">
<path fill-rule="evenodd" clip-rule="evenodd" d="M52.5287 5.89719C46.1651 10.5876 36.9415 13.0902 29.0002 13.0902C17.8651 13.0902 7.8407 8.97172 0.256855 2.12195C-0.338984 1.58331 0.194886 0.849233 0.909896 1.2687C9.09435 6.03066 19.2141 8.89545 29.6675 8.89545C36.7175 8.89545 44.4729 7.43683 51.6039 4.40997C52.6812 3.95236 53.5821 5.11545 52.5287 5.89719Z" fill="#FF9900"/>
<path fill-rule="evenodd" clip-rule="evenodd" d="M55.1743 2.87036C54.3639 1.83122 49.7974 2.37939 47.7478 2.62249C47.1233 2.69876 47.028 2.15535 47.5905 1.76448C51.2274 -0.795247 57.1954 -0.0564042 57.8913 0.801603C58.5872 1.66438 57.7102 7.64661 54.2924 10.5019C53.7681 10.9404 53.2676 10.7068 53.5012 10.1253C54.2686 8.20908 55.9894 3.91427 55.1743 2.87036Z" fill="#FF9900"/>
</g>
</svg>
