<svg preserveAspectRatio="none" width="100%" height="100%" overflow="visible" style="display: block;" viewBox="0 0 109.506 19.4911" fill="none" xmlns="http://www.w3.org/2000/svg">
<g id="Vector">
<path fill-rule="evenodd" clip-rule="evenodd" d="M63.2973 3.60364V1.11541C63.2973 0.738842 63.5833 0.486206 63.9265 0.486206H75.0663C75.4238 0.486206 75.7098 0.743609 75.7098 1.11541V3.24613C75.7051 3.60364 75.4048 4.07078 74.8709 4.80962L69.0984 13.0513C71.2434 12.9988 73.5076 13.3182 75.4524 14.4145C75.891 14.6624 76.0101 15.0247 76.0435 15.3822V18.0373C76.0435 18.3995 75.6431 18.8238 75.2236 18.6045C71.7964 16.8074 67.2441 16.612 63.4546 18.6236C63.0685 18.8333 62.6633 18.4138 62.6633 18.0516V15.53C62.6633 15.1248 62.6681 14.4336 63.0733 13.8187L69.761 4.22808H63.9408C63.5833 4.22808 63.2973 3.97544 63.2973 3.60364Z" fill="black"/>
<path fill-rule="evenodd" clip-rule="evenodd" d="M22.661 19.1289H19.2719C18.9477 19.105 18.6903 18.8619 18.6665 18.5521V1.15835C18.6665 0.81038 18.9573 0.533908 19.3195 0.533908H22.4799C22.8088 0.548199 23.0709 0.800843 23.0948 1.11545V3.38917H23.1568C23.9814 1.19171 25.5306 0.16687 27.6184 0.16687C29.7396 0.16687 31.0647 1.19171 32.0181 3.38917C32.8379 1.19171 34.7017 0.16687 36.699 0.16687C38.1195 0.16687 39.6734 0.753176 40.622 2.06879C41.6945 3.53217 41.4752 5.65812 41.4752 7.52191L41.4705 18.4997C41.4705 18.8476 41.1797 19.1289 40.8174 19.1289H37.4331C37.0946 19.105 36.8229 18.8333 36.8229 18.4997V9.28083C36.8229 8.54676 36.8897 6.71634 36.7276 6.02039C36.475 4.85255 35.7171 4.52365 34.7351 4.52365C33.9152 4.52365 33.0572 5.07182 32.7093 5.9489C32.3613 6.82597 32.3946 8.29412 32.3946 9.28083V18.4997C32.3946 18.8476 32.1039 19.1289 31.7416 19.1289H28.3572C28.014 19.105 27.7471 18.8333 27.7471 18.4997L27.7423 9.28083C27.7423 7.34078 28.0617 4.48551 25.6545 4.48551C23.2187 4.48551 23.3141 7.26927 23.3141 9.28083V18.4997C23.3141 18.8476 23.0233 19.1289 22.661 19.1289Z" fill="black"/>
<path fill-rule="evenodd" clip-rule="evenodd" d="M85.3003 0.16687C90.3292 0.16687 93.051 4.48551 93.051 9.97677C93.051 15.2821 90.0432 19.4911 85.3003 19.4911C80.362 19.4911 77.6736 15.1725 77.6736 9.79087C77.6736 4.37588 80.3954 0.16687 85.3003 0.16687ZM85.3289 3.71807C82.8312 3.71807 82.6739 7.1215 82.6739 9.24269C82.6739 11.3686 82.6405 15.9066 85.3003 15.9066C87.9268 15.9066 88.0507 12.2457 88.0507 10.0149C88.0507 8.54675 87.9888 6.7926 87.5454 5.40072C87.1641 4.18998 86.4062 3.71807 85.3289 3.71807Z" fill="black"/>
<path fill-rule="evenodd" clip-rule="evenodd" d="M99.572 19.1289H96.1972C95.8587 19.105 95.587 18.8333 95.587 18.4997L95.5823 1.10115C95.6109 0.781776 95.8921 0.533908 96.2353 0.533908H99.3766C99.6721 0.548199 99.9152 0.748411 99.9819 1.02011V3.67994H100.044C100.992 1.30135 102.322 0.16687 104.663 0.16687C106.183 0.16687 107.666 0.715043 108.619 2.21656C109.506 3.60844 109.506 5.9489 109.506 7.63154V18.5807C109.468 18.8858 109.186 19.1289 108.853 19.1289H105.454C105.144 19.105 104.887 18.8762 104.854 18.5807V9.13306C104.854 7.23114 105.073 4.44738 102.732 4.44738C101.908 4.44738 101.15 5.00032 100.773 5.83926C100.297 6.90224 100.235 7.96045 100.235 9.13306V18.4997C100.23 18.8476 99.9343 19.1289 99.572 19.1289Z" fill="black"/>
<path fill-rule="evenodd" clip-rule="evenodd" d="M54.4169 10.8204C54.4169 12.1408 54.4503 13.2419 53.783 14.4146C53.2443 15.3679 52.3863 15.9542 51.4377 15.9542C50.1364 15.9542 49.3737 14.9627 49.3737 13.4993C49.3737 10.6107 51.9621 10.0864 54.4169 10.0864V10.8204ZM57.8347 19.0812C57.6106 19.2814 57.2865 19.2957 57.0339 19.1622C55.9089 18.2279 55.7039 17.7942 55.089 16.9028C53.23 18.7999 51.9096 19.3672 49.5024 19.3672C46.6472 19.3672 44.4307 17.6083 44.4307 14.0857C44.4307 11.3353 45.9179 9.46193 48.0438 8.54673C49.8838 7.73638 52.453 7.59338 54.4169 7.36935V6.93081C54.4169 6.12523 54.4789 5.17189 54.0022 4.47595C53.5923 3.85151 52.801 3.5941 52.1003 3.5941C50.8085 3.5941 49.6598 4.25668 49.3785 5.62949C49.3213 5.93456 49.0973 6.23487 48.7874 6.24917L45.5032 5.89643C45.2267 5.83446 44.9169 5.61043 44.9979 5.18619C45.751 1.20122 49.3547 0 52.577 0C54.2263 0 56.3808 0.438539 57.6821 1.68742C59.3314 3.22707 59.1741 5.28152 59.1741 7.51711V12.7986C59.1741 14.386 59.8319 15.0819 60.4516 15.9399C60.6661 16.245 60.7138 16.612 60.4373 16.8408C59.7461 17.4176 58.5163 18.4901 57.8394 19.0907L57.8347 19.0812Z" fill="black"/>
<path fill-rule="evenodd" clip-rule="evenodd" d="M9.98627 10.8204C9.98627 12.1408 10.0196 13.2419 9.35229 14.4145C8.81365 15.3679 7.96041 15.9542 7.00707 15.9542C5.70575 15.9542 4.94785 14.9627 4.94785 13.4993C4.94785 10.6107 7.53617 10.0864 9.98627 10.0864V10.8204ZM13.404 19.0812C13.18 19.2814 12.8558 19.2957 12.6032 19.1622C11.4782 18.2279 11.278 17.7941 10.6584 16.9028C8.79935 18.7999 7.48374 19.3672 5.07178 19.3672C2.22129 19.3672 0 17.6082 0 14.0856C0 11.3352 1.49198 9.46193 3.61317 8.54672C5.45312 7.73638 8.02238 7.59338 9.98627 7.36934V6.9308C9.98627 6.12523 10.0482 5.17188 9.57633 4.47595C9.16162 3.8515 8.37035 3.5941 7.67441 3.5941C6.38263 3.5941 5.22908 4.25668 4.94785 5.62949C4.89065 5.93456 4.66661 6.23486 4.36154 6.24916L1.07251 5.89642C0.796041 5.83446 0.490971 5.61042 0.567238 5.18619C1.32515 1.20122 4.92401 0 8.14631 0C9.79559 0 11.9501 0.438539 13.2515 1.68742C14.9007 3.22706 14.7434 5.28152 14.7434 7.51711V12.7986C14.7434 14.3859 15.4013 15.0819 16.0209 15.9399C16.2402 16.245 16.2879 16.612 16.0114 16.8408C15.3202 17.4176 14.0904 18.4901 13.4135 19.0907L13.404 19.0812Z" fill="black"/>
</g>
</svg>
